<svg xmlns="http://www.w3.org/2000/svg" viewBox="0 0 493.14 95.73"><defs><style>.cls-1{fill:#211915;}</style></defs><title>Ativo 1</title><g id="Camada_2" data-name="Camada 2"><g id="Camada_1-2" data-name="Camada 1"><path class="cls-1" d="M85,16.7q0,14.79-20.44,25.39Q50.89,49.25,32,52.94l-6.1,17.39H7.7L25.94,19.05H44l-8.6,24a55.84,55.84,0,0,0,17.2-6.85Q63.08,29.7,63.49,21q.24-5.61-3.75-7.35c-1.6-.7-4.49-1.05-8.65-1.05H0L7.8,0H59.29Q70.58,0,76.53,2.8,85,6.74,85,16.7Z"/><path class="cls-1" d="M141.37,62.34q-2.4,8-12.25,8h-19q-8.08,0-8.09-5.19a17.17,17.17,0,0,1-13.4,6.19,12.94,12.94,0,0,1-9.5-3.6,12.62,12.62,0,0,1-3.65-9.39q0-10.46,8-16.5,7.25-5.51,18-5.5H130l-9.4,26Zm-32.25-18h-11L94.58,56a7.64,7.64,0,0,0-.3,2q0,4.35,8.5,4.35Z"/><path class="cls-1" d="M209.75,62.34A10.17,10.17,0,0,1,204,68.83a15.5,15.5,0,0,1-6.75,1.5H177.31q-6.85,0-6.85-4.5a10.71,10.71,0,0,1,.7-3.49L175,51.59l-17.2,14.54q-6,4.2-9.94,4.2h-9.2l11.95-34h18l-5.65,16,15.25-12.5A19.93,19.93,0,0,1,191.66,35q4.89.21,4.89,5.2a12.83,12.83,0,0,1-.79,4.15l-6.45,18Z"/><path class="cls-1" d="M274,62.34q-2.31,8-14.85,8h-8.9q-4.44,12.11-8.85,17.5a20.17,20.17,0,0,1-16.34,7.9,12.46,12.46,0,0,1-8.92-3.13q-3.33-3.12-3.33-8.67,0-10.84,6.35-14a15,15,0,0,1-7.75-4.35,12.45,12.45,0,0,1-3.55-8.94,15.6,15.6,0,0,1,.65-4.3A19.26,19.26,0,0,1,218,40a30.25,30.25,0,0,1,15.4-3.7H262l-9.15,26ZM232.3,71.68c-2.17,0-4.19,1.24-6.08,3.73a12.26,12.26,0,0,0-2.82,7.42,6.18,6.18,0,0,0,2.85,5.3Zm8.79-27.34H230.45l-4,12.7a7,7,0,0,0-.35,2.1c0,2.83,2.06,4.25,6.2,4.25.26,0,.65,0,1.17,0s.91-.05,1.18-.05Z"/><path class="cls-1" d="M385.81,30.94q0,17.36-10.1,28.6-10.48,11.59-27.64,11.59-13.8,0-22.17-8.42t-8.37-22.27q0-17.25,10.19-28.59Q338.28.1,355.32.1q13.85,0,22.17,8.5T385.81,30.94Zm-21.39-5.75q0-14.83-8.7-14.84-8.5,0-13.45,14.54a67.28,67.28,0,0,0-3.75,21.8q0,14.75,8.8,14.75,8.55,0,13.45-14.5A67.91,67.91,0,0,0,364.42,25.19Z"/><path class="cls-1" d="M420.75,63.89a7.4,7.4,0,0,1-2.55,5.64,9.25,9.25,0,0,1-12.32,0,7.58,7.58,0,0,1,0-11.29,9.25,9.25,0,0,1,12.32,0A7.4,7.4,0,0,1,420.75,63.89Z"/><path class="cls-1" d="M493.14,0l-6.05,14.25h-25.7l-4.39,12h7q11.65,0,17.65,4.95a16.73,16.73,0,0,1,6.55,13.1q0,8.35-7.1,15.65-11.7,12-32.69,12a59,59,0,0,1-9.05-.7,14.69,14.69,0,0,1-8.65-4.1,10.89,10.89,0,0,1-3.45-8,11.05,11.05,0,0,1,3.88-8.48,13.36,13.36,0,0,1,9.32-3.52A13.59,13.59,0,0,1,450,50.71a11,11,0,0,1,3.9,8.48,11.8,11.8,0,0,1-.85,4.3,15.44,15.44,0,0,0,10.14-5.8,16.17,16.17,0,0,0,4-10.5,10.2,10.2,0,0,0-4.2-8.45Q458.2,35,449.2,35H435.9L448.2,0Z"/></g></g></svg>