<svg xmlns="http://www.w3.org/2000/svg" viewBox="0 0 493.14 290.42"><defs><style>.cls-1{fill:#211915;}</style></defs><title>Ativo 3</title><g id="Camada_2" data-name="Camada 2"><g id="Camada_1-2" data-name="Camada 1"><path class="cls-1" d="M85,211.39q0,14.79-20.44,25.39Q50.89,243.94,32,247.63L25.94,265H7.7l18.24-51.28H44l-8.6,24a55.84,55.84,0,0,0,17.2-6.85q10.44-6.54,10.85-15.24.24-5.61-3.75-7.35c-1.6-.7-4.49-1.05-8.65-1.05H0l7.8-12.6H59.29q11.29,0,17.24,2.8Q85,201.44,85,211.39Z"/><path class="cls-1" d="M141.37,257q-2.4,8-12.25,8h-19q-8.08,0-8.09-5.19A17.17,17.17,0,0,1,88.68,266a12.94,12.94,0,0,1-9.5-3.6A12.6,12.6,0,0,1,75.53,253q0-10.46,8-16.5,7.25-5.49,18-5.5H130l-9.4,26Zm-32.25-18h-11l-3.5,11.65a7.64,7.64,0,0,0-.3,2q0,4.35,8.5,4.35Z"/><path class="cls-1" d="M209.75,257a10.17,10.17,0,0,1-5.75,6.49,15.5,15.5,0,0,1-6.75,1.5H177.31q-6.85,0-6.85-4.49a10.71,10.71,0,0,1,.7-3.5l3.8-10.75-17.2,14.55q-6,4.19-9.94,4.19h-9.2l11.95-34h18L163,247l15.25-12.5a20,20,0,0,1,13.45-4.85q4.89.21,4.89,5.2a12.83,12.83,0,0,1-.79,4.15l-6.45,18Z"/><path class="cls-1" d="M274,257q-2.31,8-14.85,8h-8.9q-4.44,12.11-8.85,17.5a20.17,20.17,0,0,1-16.34,7.9,12.46,12.46,0,0,1-8.92-3.13q-3.33-3.12-3.33-8.67,0-10.85,6.35-14a15.06,15.06,0,0,1-7.75-4.34,12.49,12.49,0,0,1-3.55-8.95,15.6,15.6,0,0,1,.65-4.3,19.26,19.26,0,0,1,9.45-12.3,30.35,30.35,0,0,1,15.4-3.7H262l-9.15,26Zm-41.74,9.34c-2.17,0-4.19,1.25-6.08,3.73a12.26,12.26,0,0,0-2.82,7.42,6.18,6.18,0,0,0,2.85,5.3ZM241.09,239H230.45l-4,12.7a7,7,0,0,0-.35,2.1c0,2.83,2.06,4.25,6.2,4.25.26,0,.65,0,1.17-.05s.91,0,1.18,0Z"/><path class="cls-1" d="M385.81,225.63q0,17.35-10.1,28.6-10.48,11.6-27.64,11.59-13.8,0-22.17-8.42t-8.37-22.27q0-17.25,10.19-28.59,10.56-11.74,27.6-11.75,13.85,0,22.17,8.5T385.81,225.63Zm-21.39-5.75q0-14.83-8.7-14.84-8.5,0-13.45,14.54a67.28,67.28,0,0,0-3.75,21.8q0,14.75,8.8,14.75,8.55,0,13.45-14.5A67.91,67.91,0,0,0,364.42,219.88Z"/><path class="cls-1" d="M420.75,258.58a7.38,7.38,0,0,1-2.55,5.64,9.25,9.25,0,0,1-12.32,0,7.58,7.58,0,0,1,0-11.29,9.25,9.25,0,0,1,12.32,0A7.4,7.4,0,0,1,420.75,258.58Z"/><path class="cls-1" d="M493.14,194.69l-6.05,14.25h-25.7L457,221h7q11.65,0,17.65,5a16.73,16.73,0,0,1,6.55,13.1q0,8.35-7.1,15.65-11.7,12-32.69,12a59,59,0,0,1-9.05-.7,14.74,14.74,0,0,1-8.65-4.09,10.93,10.93,0,0,1-3.45-8.05,11.05,11.05,0,0,1,3.88-8.48,13.36,13.36,0,0,1,9.32-3.52A13.59,13.59,0,0,1,450,245.4a11,11,0,0,1,3.9,8.48,11.8,11.8,0,0,1-.85,4.3,15.44,15.44,0,0,0,10.14-5.8,16.15,16.15,0,0,0,4-10.5,10.2,10.2,0,0,0-4.2-8.45q-4.74-3.75-13.74-3.75H435.9l12.3-35Z"/><polygon class="cls-1" points="109.13 0 124.36 30.86 158.42 35.81 133.77 59.84 139.59 93.76 109.13 77.74 78.66 93.76 84.48 59.84 59.83 35.81 93.89 30.86 109.13 0"/></g></g></svg>